# xmcd CD database file
#
# Track frame offsets:
#	150
#	14550
#	36875
#	49687
#	73000
#	88875
#	111887
#	122112
#	137000
#	159637
#	178162
#	191325
#	204525
#	226175
#
# Disc length: 3183 seconds
#
# Revision: 0
# Processed by: cddbd v1.5.1PL0 Copyright (c) Steve Scherf et al.
# Submitted via: CDex 1.51
#
DISCID=c50c6d0e
DTITLE=Bourbon Street Jazzband - I Must Have It
DYEAR=1983
DGENRE=Jazz
TTITLE0=Too Late 
TTITLE1=Japanese Sandman
TTITLE2=Hobo You Can't Ride This Train
TTITLE3=You're Driving Me Crazy
TTITLE4=Hot Lips
TTITLE5=Tin Roof Blues
TTITLE6=Edna
TTITLE7=Waiting For Robert E. Lee
TTITLE8=I Must Have It
TTITLE9=Whispering
TTITLE10=New Orleans Shout
TTITLE11=Beedle Um Bum
TTITLE12=Papa De Da Da
TTITLE13=Shine
EXTD=YEAR: 1983
EXTT0=
EXTT1=
EXTT2=
EXTT3=
EXTT4=
EXTT5=
EXTT6=
EXTT7=
EXTT8=
EXTT9=
EXTT10=
EXTT11=
EXTT12=
EXTT13=
PLAYORDER=
